<svg viewBox="0 0 60 60" xmlns="http://www.w3.org/2000/svg"><path d="M48.06 30H32v25.31A10.408 10.408 0 0 0 30 59a10.408 10.408 0 0 0-2-3.69V30H11.94A18.595 18.595 0 0 0 13 26h15V6.91c.69.06 1.36.09 2 .09s1.31-.03 2-.09V26h15a18.595 18.595 0 0 0 1.06 4Z" fill="#ffffff" class="fill-f57b02"></path><path d="M28 6.91V26H13c.93-5.87-.79-12.21-5-18l8-7a18.924 18.924 0 0 0 12 5.91Z" fill="#d64649" class="fill-ba2a2a"></path><path d="M28 30v25.31c-3.48-3.95-8.91-1.95-13-9.31l-3 3-8-9a22.255 22.255 0 0 0 7.94-10Z" fill="#8dc63f" class="fill-fbc12e"></path><path d="M30 59a10.408 10.408 0 0 1 2-3.69v-4.643c-.78.88-2.708 2.458-3.292 4.458-.55-1.64.742 2.235 1.292 3.875Z" fill="#ffffff" class="fill-d86a07"></path><path d="M47 26H32V6.91A18.924 18.924 0 0 0 44 1l8 7c-4.21 5.79-5.93 12.13-5 18Z" fill="#8f3868" class="fill-398e3d"></path><path d="m52 8-8-7a24.14 24.14 0 0 1-2.038 1.819l6.35 5.556c-4.12 5.667-5.849 11.86-5.048 17.625H47c-.93-5.87.79-12.21 5-18Z" fill="#753151" class="fill-327732"></path><path d="m56 40-8 9-3-3c-4.09 7.36-9.52 5.36-13 9.31V30h16.06A22.255 22.255 0 0 0 56 40Z" fill="#00b9b5" class="fill-0288d0"></path><path d="M54.881 39.128q-.484-.398-.943-.809A21.435 21.435 0 0 1 48.06 30l-3.667.417a22.197 22.197 0 0 0 7.787 9.88L48 45l-2.617-2.332a.994.994 0 0 0-1.453.134C37.875 50.875 35.687 47.75 32 51.31v4c3.48-3.95 8.91-1.95 13-9.31l1.255 1.255L48 49l8-9a27.213 27.213 0 0 1-1.119-.872Z" fill="#039e9b" class="fill-0579ad"></path><path d="M47 26h-3.688a18.595 18.595 0 0 0 1.06 4h3.688A18.595 18.595 0 0 1 47 26Z" fill="#ffffff" class="fill-d86a07"></path><path d="M28 6.91v.014c.053-.004.103-.003.156-.007-.053-.004-.102-.002-.156-.007ZM28.312 6.91c-.054.005-.102.003-.156.007.054.004.103.003.156.007Z" fill="#ffffff" class="fill-f57b02"></path><path d="M56.588 39.192c-10.186-7.408-11.704-19.707-3.78-30.603a1 1 0 0 0-.15-1.341l-8-7a1 1 0 0 0-1.365.045A17.843 17.843 0 0 1 30 6 17.843 17.843 0 0 1 16.707.293a1 1 0 0 0-1.366-.045l-8 7a1 1 0 0 0-.15 1.34c7.925 10.897 6.407 23.196-3.78 30.604a1 1 0 0 0-.159 1.473l8 9a1 1 0 0 0 .719.335.956.956 0 0 0 .736-.293l2.097-2.096c2.478 3.787 5.348 4.829 7.906 5.757 2.77 1.005 4.958 1.8 6.341 5.949a1 1 0 0 0 1.898 0c1.383-4.15 3.571-4.944 6.341-5.949 2.558-.928 5.428-1.97 7.906-5.757l2.097 2.096a.96.96 0 0 0 .736.293 1 1 0 0 0 .719-.335l8-9a1 1 0 0 0-.16-1.473ZM44.033 2.358l6.63 5.801c-3.807 5.54-5.374 11.38-4.821 16.841H33V7.773a19.89 19.89 0 0 0 11.033-5.415ZM9.337 8.16l6.63-5.8A19.89 19.89 0 0 0 27 7.772V25H14.158c.553-5.46-1.014-11.302-4.821-16.841Zm14.055 43.33c-2.586-.94-5.26-1.91-7.518-5.975a1 1 0 0 0-.735-.504A1.024 1.024 0 0 0 15 45a1 1 0 0 0-.707.293l-2.25 2.25-6.577-7.399A23.257 23.257 0 0 0 12.614 31H27v22.138a16.821 16.821 0 0 0-3.608-1.65ZM30 56.458a9.742 9.742 0 0 0-1-1.484V30a1 1 0 0 0-1-1H13.345a20.535 20.535 0 0 0 .51-2H28a1 1 0 0 0 1-1V7.956c.333.015.66.044 1 .044s.667-.029 1-.044V26a1 1 0 0 0 1 1h14.145a20.535 20.535 0 0 0 .51 2H32a1 1 0 0 0-1 1v24.975a9.742 9.742 0 0 0-1 1.484Zm17.957-8.916-2.25-2.25a1 1 0 0 0-1.581.222c-2.258 4.064-4.932 5.035-7.518 5.973A16.821 16.821 0 0 0 33 53.138V31h14.386a23.257 23.257 0 0 0 7.148 9.144Z" data-name="Layer 1" fill="#ffffff" class="fill-000000"></path></svg>